<?xml version="1.0" encoding="UTF-8" standalone="no"?>
<svg xmlns:xlink="http://www.w3.org/1999/xlink" height="90.1px" width="362.55px" xmlns="http://www.w3.org/2000/svg">
  <g transform="matrix(1.0, 0.0, 0.0, 1.0, -2.2, -1.4)">
    <use height="84.05" transform="matrix(1.0, 0.0, 0.0, 1.0, 9.1, 7.45)" width="354.6" xlink:href="#shape0"/>
    <use height="27.2" transform="matrix(4.9914, 0.0, 0.0, 3.1409, 2.2436, 1.4068)" width="71.05" xlink:href="#shape1"/>
    <use height="61.8" transform="matrix(1.0, 0.0, 0.0, 1.0, 31.3, 18.8)" width="289.7" xlink:href="#shape2"/>
    <use height="52.15" transform="matrix(1.0, 0.0, 0.0, 1.0, 34.3, 20.75)" width="308.5" xlink:href="#text0"/>
  </g>
  <defs>
    <g id="shape0" transform="matrix(1.0, 0.0, 0.0, 1.0, -9.1, -7.45)">
      <path d="M324.3 57.55 L324.3 68.4 308.25 68.4 308.25 91.5 22.0 91.5 22.0 76.9 9.1 76.9 9.1 13.75 22.0 13.75 22.0 7.45 363.7 7.45 363.7 57.55 324.3 57.55 M324.5 80.8 L324.5 67.0 346.45 67.0 346.45 80.8 324.5 80.8" fill="#8b5307" fill-rule="evenodd" stroke="none"/>
    </g>
    <g id="shape1" transform="matrix(1.0, 0.0, 0.0, 1.0, 5.05, 10.95)">
      <path d="M62.55 8.45 L62.55 12.85 58.15 12.85 58.15 8.45 62.55 8.45" fill="url(#gradient0)" fill-rule="evenodd" stroke="none"/>
      <path d="M54.9 8.9 L54.9 16.25 -2.45 16.25 -2.45 11.6 -5.05 11.6 -5.05 -8.5 -2.45 -8.5 -2.45 -10.95 66.0 -10.95 66.0 5.45 58.1 5.45 58.1 8.9 54.9 8.9" fill="url(#gradient1)" fill-rule="evenodd" stroke="none"/>
    </g>
    <linearGradient gradientTransform="matrix(0.0027, 0.0, 0.0, 0.0027, 60.35, 10.65)" gradientUnits="userSpaceOnUse" id="gradient0" spreadMethod="pad" x1="-819.2" x2="819.2">
      <stop offset="0.0" stop-color="#fa9c1a"/>
      <stop offset="1.0" stop-color="#925503"/>
      <stop offset="1.0" stop-color="#067fc4"/>
      <stop offset="1.0" stop-color="#067fc4"/>
    </linearGradient>
    <linearGradient gradientTransform="matrix(0.0, -0.012, 0.0166, 0.0, 30.35, -2.85)" gradientUnits="userSpaceOnUse" id="gradient1" spreadMethod="pad" x1="-819.2" x2="819.2">
      <stop offset="0.0" stop-color="#fa9c1a"/>
      <stop offset="1.0" stop-color="#925503"/>
      <stop offset="1.0" stop-color="#067fc4"/>
      <stop offset="1.0" stop-color="#067fc4"/>
    </linearGradient>
    <g id="shape2" transform="matrix(1.0, 0.0, 0.0, 1.0, -31.3, -18.8)">
      <path d="M49.3 31.9 L56.7 31.45 63.4 31.8 Q66.25 32.15 68.15 33.4 70.0 34.6 70.95 37.1 71.9 39.55 72.0 43.75 L72.0 45.2 61.7 45.2 61.7 43.75 Q61.5 42.1 60.7 41.3 59.9 40.55 58.6 40.35 L55.6 40.15 Q52.8 40.1 51.45 40.8 50.1 41.45 49.7 43.05 49.3 44.6 49.35 47.25 L49.35 53.1 Q49.3 55.9 49.65 57.6 49.95 59.3 51.3 60.1 52.65 60.9 55.6 60.85 L59.05 60.6 Q60.4 60.35 61.1 59.35 61.75 58.3 61.75 56.15 L61.75 55.05 72.05 55.05 72.05 56.15 71.9 60.1 Q71.7 62.0 71.0 63.7 70.25 65.35 68.6 66.8 66.9 68.2 64.95 68.75 L60.95 69.45 56.7 69.55 49.65 69.25 Q46.45 68.9 44.05 67.6 41.7 66.25 40.4 63.35 39.1 60.45 39.05 55.35 L39.05 45.65 Q39.05 41.05 40.3 38.2 41.45 35.35 43.75 33.9 46.05 32.45 49.3 31.9 M92.8 60.45 Q93.1 58.95 93.05 56.15 93.1 53.35 92.8 51.85 92.5 50.35 91.55 49.8 90.6 49.3 88.65 49.3 86.6 49.3 85.6 49.8 84.6 50.35 84.3 51.85 84.0 53.35 84.0 56.15 84.0 58.95 84.3 60.45 84.6 61.95 85.6 62.45 86.6 63.0 88.65 62.95 90.6 63.0 91.55 62.45 92.5 61.95 92.8 60.45 M81.85 43.3 L88.5 42.7 95.2 43.25 Q97.8 43.8 99.2 45.3 100.6 46.7 101.15 49.4 101.7 52.0 101.65 56.15 101.7 61.5 100.7 64.4 99.65 67.35 96.75 68.45 93.9 69.6 88.5 69.55 83.2 69.6 80.35 68.4 77.5 67.2 76.4 64.3 75.35 61.35 75.4 56.15 75.4 52.15 75.9 49.5 76.45 46.9 77.85 45.4 79.25 43.9 81.85 43.3 M125.75 43.05 Q127.45 43.4 128.65 44.5 129.85 45.65 130.1 47.85 L130.5 47.85 Q130.75 46.0 131.85 44.85 132.95 43.7 134.55 43.2 L137.8 42.7 Q142.3 42.7 144.65 44.7 146.95 46.75 146.95 51.3 L146.95 69.25 138.35 69.25 138.35 54.05 138.1 51.6 Q137.95 50.5 137.25 49.9 136.55 49.3 134.9 49.3 133.25 49.35 132.35 50.0 131.5 50.65 131.2 51.8 130.85 52.95 130.9 54.35 L130.9 69.25 122.3 69.25 122.3 53.35 122.1 51.25 Q121.9 50.35 121.2 49.8 120.5 49.3 119.05 49.3 117.3 49.3 116.4 49.9 115.45 50.5 115.15 51.65 114.8 52.75 114.85 54.35 L114.85 69.25 106.25 69.25 106.25 43.0 114.6 43.0 114.6 46.7 114.95 46.7 Q115.5 45.2 116.65 44.3 117.75 43.4 119.2 43.05 L122.15 42.7 125.75 43.05 M224.85 51.85 Q224.55 50.35 223.6 49.8 222.65 49.3 220.7 49.3 218.65 49.3 217.65 49.8 216.65 50.35 216.35 51.85 216.05 53.35 216.05 56.15 216.05 58.95 216.35 60.45 216.65 61.95 217.65 62.45 218.65 63.0 220.7 62.95 222.65 63.0 223.6 62.45 224.55 61.95 224.85 60.45 225.15 58.95 225.1 56.15 225.15 53.35 224.85 51.85 M170.2 56.15 L170.0 52.1 Q169.7 50.6 168.7 49.95 167.7 49.3 165.45 49.3 163.65 49.3 162.7 49.85 161.8 50.45 161.45 51.9 161.15 53.4 161.15 56.15 L161.35 59.9 Q161.65 61.4 162.55 62.15 163.5 62.95 165.45 62.95 167.25 63.0 168.25 62.5 169.3 62.0 169.75 60.55 170.25 59.1 170.2 56.15 M164.1 43.6 Q166.0 42.65 168.85 42.7 173.65 42.65 176.2 44.95 178.8 47.2 178.8 52.35 L178.8 58.35 Q178.85 64.3 176.55 66.95 174.2 69.6 168.85 69.55 L165.85 69.25 Q164.45 68.9 163.35 68.0 162.25 67.1 161.55 65.3 L161.15 65.3 161.15 80.6 152.55 80.6 152.55 43.0 161.15 43.0 160.95 47.15 161.35 47.15 Q162.15 44.55 164.1 43.6 M209.9 45.4 Q211.3 43.9 213.9 43.3 L220.55 42.7 227.25 43.25 Q229.85 43.8 231.25 45.3 232.65 46.7 233.2 49.4 233.75 52.0 233.7 56.15 233.75 61.5 232.75 64.4 231.7 67.35 228.8 68.45 225.95 69.6 220.55 69.55 215.25 69.6 212.4 68.4 209.55 67.2 208.45 64.3 207.4 61.35 207.45 56.15 207.45 52.15 207.95 49.5 208.5 46.9 209.9 45.4 M203.05 44.15 Q204.45 45.55 204.85 47.75 205.25 49.95 205.2 52.4 L205.2 54.45 197.45 54.45 197.45 53.2 197.4 51.4 Q197.3 50.5 196.85 49.9 196.35 49.35 195.2 49.3 193.3 49.35 192.65 50.6 191.95 51.8 192.0 53.5 L192.0 69.25 183.4 69.25 183.4 43.0 191.75 43.0 191.75 46.85 192.1 46.85 193.2 44.95 194.65 43.65 Q195.45 43.2 196.5 42.95 L198.7 42.7 Q201.65 42.75 203.05 44.15 M255.6 52.4 Q255.3 50.85 254.4 50.1 253.45 49.3 251.5 49.3 249.75 49.25 248.7 49.75 247.65 50.25 247.2 51.7 246.75 53.15 246.75 56.1 246.7 58.65 246.95 60.15 247.25 61.65 248.25 62.3 249.25 63.0 251.5 62.95 253.3 63.0 254.25 62.4 255.2 61.85 255.5 60.35 255.85 58.85 255.8 56.1 L255.6 52.4 M280.45 58.4 Q278.8 58.35 277.75 58.85 276.7 59.4 276.7 61.15 276.7 62.55 277.4 63.15 278.05 63.75 278.9 63.9 L280.45 64.0 Q283.1 64.05 284.15 63.45 285.2 62.8 285.15 60.8 285.1 59.2 283.85 58.8 L280.45 58.4 M246.75 46.75 L247.15 46.75 Q247.85 45.1 248.95 44.2 250.05 43.3 251.45 43.0 L254.45 42.7 Q259.8 42.65 262.15 45.3 264.45 47.95 264.4 53.9 L264.4 59.9 Q264.4 65.05 261.8 67.3 259.25 69.6 254.45 69.55 L251.05 69.15 Q249.55 68.75 248.5 67.7 247.45 66.65 246.95 64.7 L246.55 64.7 246.75 69.25 238.15 69.25 238.15 31.75 246.75 31.75 246.75 46.75 M310.45 43.65 L312.3 42.95 314.5 42.7 Q317.45 42.75 318.85 44.15 320.25 45.55 320.65 47.75 321.05 49.95 321.0 52.4 L321.0 54.45 313.25 54.45 313.25 53.2 313.2 51.4 Q313.1 50.5 312.65 49.9 312.15 49.35 311.0 49.3 309.1 49.35 308.45 50.6 307.75 51.8 307.8 53.5 L307.8 69.25 299.2 69.25 299.2 43.0 307.55 43.0 307.55 46.85 307.9 46.85 Q308.35 45.75 309.0 44.95 309.65 44.15 310.45 43.65 M286.9 43.05 Q289.25 43.35 290.8 44.4 292.3 45.4 293.05 47.45 293.75 49.5 293.75 52.85 L293.75 69.25 285.15 69.25 285.45 65.35 285.15 65.35 Q284.8 67.15 283.55 68.05 282.35 68.95 280.75 69.25 L277.6 69.55 272.45 68.9 Q270.35 68.25 269.2 66.5 268.1 64.7 268.1 61.4 268.1 58.3 269.2 56.5 270.25 54.65 272.35 53.9 274.5 53.15 277.6 53.15 L280.35 53.25 Q281.8 53.4 283.0 54.0 284.25 54.65 284.75 56.1 L285.15 56.1 285.15 51.95 284.95 49.85 Q284.75 48.95 283.9 48.45 283.1 47.95 281.25 47.95 279.6 47.9 278.7 48.5 277.75 49.1 277.75 50.8 L269.15 50.8 Q269.2 47.8 270.2 46.1 271.2 44.4 272.9 43.7 274.6 43.0 276.75 42.85 L281.25 42.7 286.9 43.05" fill="#000000" fill-opacity="0.2" fill-rule="evenodd" stroke="none"/>
      <path d="M51.95 21.8 L58.65 22.15 Q61.5 22.5 63.4 23.75 65.25 24.95 66.2 27.45 67.15 29.9 67.25 34.1 L67.25 35.55 56.95 35.55 56.95 34.1 Q56.75 32.45 55.95 31.65 55.15 30.9 53.85 30.7 L50.85 30.5 Q48.05 30.45 46.7 31.15 45.35 31.8 44.95 33.4 44.55 34.95 44.6 37.6 L44.6 43.45 Q44.55 46.25 44.9 47.95 45.2 49.65 46.55 50.45 47.9 51.25 50.85 51.2 L54.3 50.95 Q55.65 50.7 56.35 49.7 57.0 48.65 57.0 46.5 L57.0 45.4 67.3 45.4 67.3 46.5 67.15 50.45 Q66.95 52.35 66.25 54.05 65.5 55.7 63.85 57.15 62.15 58.55 60.2 59.1 L56.2 59.8 51.95 59.9 44.9 59.6 Q41.7 59.25 39.3 57.95 36.95 56.6 35.65 53.7 34.35 50.8 34.3 45.7 L34.3 36.0 Q34.3 31.4 35.55 28.55 36.7 25.7 39.0 24.25 41.3 22.8 44.55 22.25 L51.95 21.8 M94.45 35.65 Q95.85 37.05 96.4 39.75 96.95 42.35 96.9 46.5 96.95 51.85 95.95 54.75 94.9 57.7 92.0 58.8 89.15 59.95 83.75 59.9 78.45 59.95 75.6 58.75 72.75 57.55 71.65 54.65 70.6 51.7 70.65 46.5 70.65 42.5 71.15 39.85 71.7 37.25 73.1 35.75 74.5 34.25 77.1 33.65 L83.75 33.05 90.45 33.6 Q93.05 34.15 94.45 35.65 M86.8 40.15 Q85.85 39.65 83.9 39.65 81.85 39.65 80.85 40.15 79.85 40.7 79.55 42.2 79.25 43.7 79.25 46.5 79.25 49.3 79.55 50.8 79.85 52.3 80.85 52.8 81.85 53.35 83.9 53.3 85.85 53.35 86.8 52.8 87.75 52.3 88.05 50.8 88.35 49.3 88.3 46.5 88.35 43.7 88.05 42.2 87.75 40.7 86.8 40.15 M133.05 33.05 Q137.55 33.05 139.9 35.05 142.2 37.1 142.2 41.65 L142.2 59.6 133.6 59.6 133.6 44.4 133.35 41.95 Q133.2 40.85 132.5 40.25 131.8 39.65 130.15 39.65 128.5 39.7 127.6 40.35 126.75 41.0 126.45 42.15 126.1 43.3 126.15 44.7 L126.15 59.6 117.55 59.6 117.55 43.7 117.35 41.6 Q117.15 40.7 116.45 40.15 115.75 39.65 114.3 39.65 112.55 39.65 111.65 40.25 110.7 40.85 110.4 42.0 110.05 43.1 110.1 44.7 L110.1 59.6 101.5 59.6 101.5 33.35 109.85 33.35 109.85 37.05 110.2 37.05 Q110.75 35.55 111.9 34.65 113.0 33.75 114.45 33.4 L117.4 33.05 121.0 33.4 Q122.7 33.75 123.9 34.85 125.1 36.0 125.35 38.2 L125.75 38.2 Q126.0 36.35 127.1 35.2 128.2 34.05 129.8 33.55 L133.05 33.05 M193.95 33.05 Q196.9 33.1 198.3 34.5 199.7 35.9 200.1 38.1 200.5 40.3 200.45 42.75 L200.45 44.8 192.7 44.8 192.7 43.55 192.65 41.75 Q192.55 40.85 192.1 40.25 191.6 39.7 190.45 39.65 188.55 39.7 187.9 40.95 187.2 42.15 187.25 43.85 L187.25 59.6 178.65 59.6 178.65 33.35 187.0 33.35 187.0 37.2 187.35 37.2 Q187.8 36.1 188.45 35.3 189.1 34.5 189.9 34.0 L191.75 33.3 193.95 33.05 M165.25 42.45 Q164.95 40.95 163.95 40.3 162.95 39.65 160.7 39.65 158.9 39.65 157.95 40.2 157.05 40.8 156.7 42.25 156.4 43.75 156.4 46.5 L156.6 50.25 Q156.9 51.75 157.8 52.5 158.75 53.3 160.7 53.3 L163.5 52.85 Q164.55 52.35 165.0 50.9 165.5 49.45 165.45 46.5 L165.25 42.45 M164.1 33.05 Q168.9 33.0 171.45 35.3 174.05 37.55 174.05 42.7 L174.05 48.7 Q174.1 54.65 171.8 57.3 169.45 59.95 164.1 59.9 L161.1 59.6 Q159.7 59.25 158.6 58.35 157.5 57.45 156.8 55.65 L156.4 55.65 156.4 70.95 147.8 70.95 147.8 33.35 156.4 33.35 156.2 37.5 156.6 37.5 Q157.4 34.9 159.35 33.95 161.25 33.0 164.1 33.05 M211.6 42.2 Q211.3 43.7 211.3 46.5 211.3 49.3 211.6 50.8 211.9 52.3 212.9 52.8 213.9 53.35 215.95 53.3 217.9 53.35 218.85 52.8 219.8 52.3 220.1 50.8 220.4 49.3 220.35 46.5 220.4 43.7 220.1 42.2 219.8 40.7 218.85 40.15 217.9 39.65 215.95 39.65 213.9 39.65 212.9 40.15 211.9 40.7 211.6 42.2 M215.8 33.05 L222.5 33.6 Q225.1 34.15 226.5 35.65 227.9 37.05 228.45 39.75 229.0 42.35 228.95 46.5 229.0 51.85 228.0 54.75 226.95 57.7 224.05 58.8 221.2 59.95 215.8 59.9 210.5 59.95 207.65 58.75 204.8 57.55 203.7 54.65 202.65 51.7 202.7 46.5 202.7 42.5 203.2 39.85 203.75 37.25 205.15 35.75 206.55 34.25 209.15 33.65 L215.8 33.05 M279.1 49.15 L275.7 48.75 Q274.05 48.7 273.0 49.2 271.95 49.75 271.95 51.5 271.95 52.9 272.65 53.5 273.3 54.1 274.15 54.25 L275.7 54.35 279.4 53.8 Q280.45 53.15 280.4 51.15 280.35 49.55 279.1 49.15 M249.7 33.05 Q255.05 33.0 257.4 35.65 259.7 38.3 259.65 44.25 L259.65 50.25 Q259.65 55.4 257.05 57.65 254.5 59.95 249.7 59.9 L246.3 59.5 Q244.8 59.1 243.75 58.05 242.7 57.0 242.2 55.05 L241.8 55.05 242.0 59.6 233.4 59.6 233.4 22.1 242.0 22.1 242.0 37.1 242.4 37.1 Q243.1 35.45 244.2 34.55 245.3 33.65 246.7 33.35 L249.7 33.05 M246.75 39.65 Q245.0 39.6 243.95 40.1 242.9 40.6 242.45 42.05 242.0 43.5 242.0 46.45 241.95 49.0 242.2 50.5 242.5 52.0 243.5 52.65 244.5 53.35 246.75 53.3 248.55 53.35 249.5 52.75 250.45 52.2 250.75 50.7 251.1 49.2 251.05 46.45 L250.85 42.75 Q250.55 41.2 249.65 40.45 248.7 39.65 246.75 39.65 M288.3 37.8 Q289.0 39.85 289.0 43.2 L289.0 59.6 280.4 59.6 280.7 55.7 280.4 55.7 Q280.05 57.5 278.8 58.4 277.6 59.3 276.0 59.6 L272.85 59.9 267.7 59.25 Q265.6 58.6 264.45 56.85 263.35 55.05 263.35 51.75 263.35 48.65 264.45 46.85 265.5 45.0 267.6 44.25 269.75 43.5 272.85 43.5 L275.6 43.6 Q277.05 43.75 278.25 44.35 279.5 45.0 280.0 46.45 L280.4 46.45 280.4 42.3 280.2 40.2 Q280.0 39.3 279.15 38.8 278.35 38.3 276.5 38.3 274.85 38.25 273.95 38.85 273.0 39.45 273.0 41.15 L264.4 41.15 Q264.45 38.15 265.45 36.45 266.45 34.75 268.15 34.05 269.85 33.35 272.0 33.2 L276.5 33.05 282.15 33.4 Q284.5 33.7 286.05 34.75 287.55 35.75 288.3 37.8 M302.8 37.2 L303.15 37.2 304.25 35.3 Q304.9 34.5 305.7 34.0 L307.55 33.3 309.75 33.05 Q312.7 33.1 314.1 34.5 315.5 35.9 315.9 38.1 316.3 40.3 316.25 42.75 L316.25 44.8 308.5 44.8 308.5 43.55 308.45 41.75 Q308.35 40.85 307.9 40.25 307.4 39.7 306.25 39.65 304.35 39.7 303.7 40.95 303.0 42.15 303.05 43.85 L303.05 59.6 294.45 59.6 294.45 33.35 302.8 33.35 302.8 37.2" fill="#614978" fill-rule="evenodd" stroke="none"/>
      <path d="M302.8 37.2 L302.8 33.35 294.45 33.35 294.45 59.6 303.05 59.6 303.05 43.85 Q303.0 42.15 303.7 40.95 304.35 39.7 306.25 39.65 307.4 39.7 307.9 40.25 308.35 40.85 308.45 41.75 L308.5 43.55 308.5 44.8 316.25 44.8 316.25 42.75 Q316.3 40.3 315.9 38.1 315.5 35.9 314.1 34.5 312.7 33.1 309.75 33.05 L307.55 33.3 305.7 34.0 Q304.9 34.5 304.25 35.3 L303.15 37.2 302.8 37.2 M288.3 37.8 Q287.55 35.75 286.05 34.75 284.5 33.7 282.15 33.4 L276.5 33.05 272.0 33.2 Q269.85 33.35 268.15 34.05 266.45 34.75 265.45 36.45 264.45 38.15 264.4 41.15 L273.0 41.15 Q273.0 39.45 273.95 38.85 274.85 38.25 276.5 38.3 278.35 38.3 279.15 38.8 280.0 39.3 280.2 40.2 L280.4 42.3 280.4 46.45 280.0 46.45 Q279.5 45.0 278.25 44.35 277.05 43.75 275.6 43.6 L272.85 43.5 Q269.75 43.5 267.6 44.25 265.5 45.0 264.45 46.85 263.35 48.65 263.35 51.75 263.35 55.05 264.45 56.85 265.6 58.6 267.7 59.25 L272.85 59.9 276.0 59.6 Q277.6 59.3 278.8 58.4 280.05 57.5 280.4 55.7 L280.7 55.7 280.4 59.6 289.0 59.6 289.0 43.2 Q289.0 39.85 288.3 37.8 M246.75 39.65 Q248.7 39.65 249.65 40.45 250.55 41.2 250.85 42.75 L251.05 46.45 Q251.1 49.2 250.75 50.7 250.45 52.2 249.5 52.75 248.55 53.35 246.75 53.3 244.5 53.35 243.5 52.65 242.5 52.0 242.2 50.5 241.95 49.0 242.0 46.45 242.0 43.5 242.45 42.05 242.9 40.6 243.95 40.1 245.0 39.6 246.75 39.65 M249.7 33.05 L246.7 33.35 Q245.3 33.65 244.2 34.55 243.1 35.45 242.4 37.1 L242.0 37.1 242.0 22.1 233.4 22.1 233.4 59.6 242.0 59.6 241.8 55.05 242.2 55.05 Q242.7 57.0 243.75 58.05 244.8 59.1 246.3 59.5 L249.7 59.9 Q254.5 59.95 257.05 57.65 259.65 55.4 259.65 50.25 L259.65 44.25 Q259.7 38.3 257.4 35.65 255.05 33.0 249.7 33.05 M279.1 49.15 Q280.35 49.55 280.4 51.15 280.45 53.15 279.4 53.8 L275.7 54.35 274.15 54.25 Q273.3 54.1 272.65 53.5 271.95 52.9 271.95 51.5 271.95 49.75 273.0 49.2 274.05 48.7 275.7 48.75 L279.1 49.15 M215.8 33.05 L209.15 33.65 Q206.55 34.25 205.15 35.75 203.75 37.25 203.2 39.85 202.7 42.5 202.7 46.5 202.65 51.7 203.7 54.65 204.8 57.55 207.65 58.75 210.5 59.95 215.8 59.9 221.2 59.95 224.05 58.8 226.95 57.7 228.0 54.75 229.0 51.85 228.95 46.5 229.0 42.35 228.45 39.75 227.9 37.05 226.5 35.65 225.1 34.15 222.5 33.6 L215.8 33.05 M211.6 42.2 Q211.9 40.7 212.9 40.15 213.9 39.65 215.95 39.65 217.9 39.65 218.85 40.15 219.8 40.7 220.1 42.2 220.4 43.7 220.35 46.5 220.4 49.3 220.1 50.8 219.8 52.3 218.85 52.8 217.9 53.35 215.95 53.3 213.9 53.35 212.9 52.8 211.9 52.3 211.6 50.8 211.3 49.3 211.3 46.5 211.3 43.7 211.6 42.2 M164.1 33.05 Q161.25 33.0 159.35 33.95 157.4 34.9 156.6 37.5 L156.2 37.5 156.4 33.35 147.8 33.35 147.8 70.95 156.4 70.95 156.4 55.65 156.8 55.65 Q157.5 57.45 158.6 58.35 159.7 59.25 161.1 59.6 L164.1 59.9 Q169.45 59.95 171.8 57.3 174.1 54.65 174.05 48.7 L174.05 42.7 Q174.05 37.55 171.45 35.3 168.9 33.0 164.1 33.05 M165.25 42.45 L165.45 46.5 Q165.5 49.45 165.0 50.9 164.55 52.35 163.5 52.85 L160.7 53.3 Q158.75 53.3 157.8 52.5 156.9 51.75 156.6 50.25 L156.4 46.5 Q156.4 43.75 156.7 42.25 157.05 40.8 157.95 40.2 158.9 39.65 160.7 39.65 162.95 39.65 163.95 40.3 164.95 40.95 165.25 42.45 M193.95 33.05 L191.75 33.3 189.9 34.0 Q189.1 34.5 188.45 35.3 187.8 36.1 187.35 37.2 L187.0 37.2 187.0 33.35 178.65 33.35 178.65 59.6 187.25 59.6 187.25 43.85 Q187.2 42.15 187.9 40.95 188.55 39.7 190.45 39.65 191.6 39.7 192.1 40.25 192.55 40.85 192.65 41.75 L192.7 43.55 192.7 44.8 200.45 44.8 200.45 42.75 Q200.5 40.3 200.1 38.1 199.7 35.9 198.3 34.5 196.9 33.1 193.95 33.05 M133.05 33.05 L129.8 33.55 Q128.2 34.05 127.1 35.2 126.0 36.35 125.75 38.2 L125.35 38.2 Q125.1 36.0 123.9 34.85 122.7 33.75 121.0 33.4 L117.4 33.05 114.45 33.4 Q113.0 33.75 111.9 34.65 110.75 35.55 110.2 37.05 L109.85 37.05 109.85 33.35 101.5 33.35 101.5 59.6 110.1 59.6 110.1 44.7 Q110.05 43.1 110.4 42.0 110.7 40.85 111.65 40.25 112.55 39.65 114.3 39.65 115.75 39.65 116.45 40.15 117.15 40.7 117.35 41.6 L117.55 43.7 117.55 59.6 126.15 59.6 126.15 44.7 Q126.1 43.3 126.45 42.15 126.75 41.0 127.6 40.35 128.5 39.7 130.15 39.65 131.8 39.65 132.5 40.25 133.2 40.85 133.35 41.95 L133.6 44.4 133.6 59.6 142.2 59.6 142.2 41.65 Q142.2 37.1 139.9 35.05 137.55 33.05 133.05 33.05 M86.8 40.15 Q87.75 40.7 88.05 42.2 88.35 43.7 88.3 46.5 88.35 49.3 88.05 50.8 87.75 52.3 86.8 52.8 85.85 53.35 83.9 53.3 81.85 53.35 80.85 52.8 79.85 52.3 79.55 50.8 79.25 49.3 79.25 46.5 79.25 43.7 79.55 42.2 79.85 40.7 80.85 40.15 81.85 39.65 83.9 39.65 85.85 39.65 86.8 40.15 M94.45 35.65 Q93.05 34.15 90.45 33.6 L83.75 33.05 77.1 33.65 Q74.5 34.25 73.1 35.75 71.7 37.25 71.15 39.85 70.65 42.5 70.65 46.5 70.6 51.7 71.65 54.65 72.75 57.55 75.6 58.75 78.45 59.95 83.75 59.9 89.15 59.95 92.0 58.8 94.9 57.7 95.95 54.75 96.95 51.85 96.9 46.5 96.95 42.35 96.4 39.75 95.85 37.05 94.45 35.65 M51.95 21.8 L44.55 22.25 Q41.3 22.8 39.0 24.25 36.7 25.7 35.55 28.55 34.3 31.4 34.3 36.0 L34.3 45.7 Q34.35 50.8 35.65 53.7 36.95 56.6 39.3 57.95 41.7 59.25 44.9 59.6 L51.95 59.9 56.2 59.8 60.2 59.1 Q62.15 58.55 63.85 57.15 65.5 55.7 66.25 54.05 66.95 52.35 67.15 50.45 L67.3 46.5 67.3 45.4 57.0 45.4 57.0 46.5 Q57.0 48.65 56.35 49.7 55.65 50.7 54.3 50.95 L50.85 51.2 Q47.9 51.25 46.55 50.45 45.2 49.65 44.9 47.95 44.55 46.25 44.6 43.45 L44.6 37.6 Q44.55 34.95 44.95 33.4 45.35 31.8 46.7 31.15 48.05 30.45 50.85 30.5 L53.85 30.7 Q55.15 30.9 55.95 31.65 56.75 32.45 56.95 34.1 L56.95 35.55 67.25 35.55 67.25 34.1 Q67.15 29.9 66.2 27.45 65.25 24.95 63.4 23.75 61.5 22.5 58.65 22.15 L51.95 21.8" fill="none" stroke="#614978" stroke-linecap="round" stroke-linejoin="round" stroke-width="6.0"/>
    </g>
    <g id="text0" transform="matrix(1.0, 0.0, 0.0, 1.0, -1.75, -9.5)">
      <g transform="matrix(1.0, 0.0, 0.0, 1.0, 0.0, 0.0)">
        <use fill="#ffffff" height="52.15" transform="matrix(0.0488, 0.0, 0.0, 0.0488, 0.0, 49.0)" width="308.5" xlink:href="#font_Eurostile_LT_Std_Bold_C0"/>
        <use fill="#ffffff" height="52.15" transform="matrix(0.0488, 0.0, 0.0, 0.0488, 36.4, 49.0)" width="308.5" xlink:href="#font_Eurostile_LT_Std_Bold_o0"/>
        <use fill="#ffffff" height="52.15" transform="matrix(0.0488, 0.0, 0.0, 0.0488, 66.05, 49.0)" width="308.5" xlink:href="#font_Eurostile_LT_Std_Bold_m0"/>
        <use fill="#ffffff" height="52.15" transform="matrix(0.0488, 0.0, 0.0, 0.0488, 112.5, 49.0)" width="308.5" xlink:href="#font_Eurostile_LT_Std_Bold_p0"/>
        <use fill="#ffffff" height="52.15" transform="matrix(0.0488, 0.0, 0.0, 0.0488, 143.4, 49.0)" width="308.5" xlink:href="#font_Eurostile_LT_Std_Bold_r0"/>
        <use fill="#ffffff" height="52.15" transform="matrix(0.0488, 0.0, 0.0, 0.0488, 168.45, 49.0)" width="308.5" xlink:href="#font_Eurostile_LT_Std_Bold_o0"/>
        <use fill="#ffffff" height="52.15" transform="matrix(0.0488, 0.0, 0.0, 0.0488, 198.1, 49.0)" width="308.5" xlink:href="#font_Eurostile_LT_Std_Bold_b0"/>
        <use fill="#ffffff" height="52.15" transform="matrix(0.0488, 0.0, 0.0, 0.0488, 228.75, 49.0)" width="308.5" xlink:href="#font_Eurostile_LT_Std_Bold_a0"/>
        <use fill="#ffffff" height="52.15" transform="matrix(0.0488, 0.0, 0.0, 0.0488, 259.2, 49.0)" width="308.5" xlink:href="#font_Eurostile_LT_Std_Bold_r0"/>
      </g>
    </g>
    <g id="font_Eurostile_LT_Std_Bold_C0">
      <path d="M500.5 -291.0 L711.5 -291.0 711.5 -268.5 Q712.0 -226.0 708.5 -187.5 705.0 -148.5 690.0 -114.0 675.0 -79.5 641.0 -50.5 606.0 -22.0 566.5 -10.0 527.0 1.5 484.5 4.0 442.0 6.5 397.5 6.0 318.5 7.0 253.0 0.0 187.0 -7.0 138.5 -34.0 90.0 -61.5 63.0 -121.0 36.5 -180.5 36.0 -284.5 L36.0 -483.5 Q36.0 -578.0 61.0 -636.0 85.5 -694.0 132.5 -724.0 179.0 -754.0 246.0 -764.5 312.5 -774.5 397.5 -774.0 476.0 -774.5 534.5 -767.0 593.0 -759.5 631.5 -734.5 670.0 -709.5 689.5 -658.5 709.0 -608.0 710.5 -522.5 L710.5 -492.5 499.5 -492.5 499.5 -522.5 Q495.5 -556.0 479.5 -572.0 463.0 -588.0 436.5 -592.0 409.5 -596.5 375.0 -596.0 317.5 -596.5 290.0 -582.5 262.5 -569.0 254.0 -537.0 246.0 -505.0 247.0 -450.5 L247.0 -330.5 Q246.0 -273.5 253.0 -238.5 259.5 -203.5 287.0 -187.5 314.5 -171.5 375.0 -172.0 417.0 -171.0 445.0 -177.0 473.0 -182.5 487.0 -203.0 500.5 -224.0 500.5 -268.5 L500.5 -291.0" fill-rule="evenodd" stroke="none"/>
    </g>
    <g id="font_Eurostile_LT_Std_Bold_o0">
      <path d="M306.5 -408.5 L306.5 -408.5 Q264.5 -409.0 244.0 -398.0 223.0 -387.0 217.0 -356.5 210.5 -326.0 211.0 -268.0 210.5 -210.5 217.0 -180.0 223.0 -150.0 244.0 -139.0 264.5 -128.5 306.5 -129.0 346.5 -128.5 366.0 -139.0 385.5 -150.0 391.5 -180.0 397.0 -210.5 396.5 -268.0 397.0 -326.0 391.5 -356.5 385.5 -387.0 366.0 -398.0 346.5 -409.0 306.5 -408.5 M303.0 -543.5 L303.0 -543.5 Q387.0 -544.0 440.5 -532.5 493.5 -521.0 522.5 -491.0 551.0 -461.5 562.0 -407.0 573.0 -353.0 572.5 -268.0 573.5 -159.0 552.5 -99.0 531.0 -39.0 472.0 -16.0 413.5 7.0 303.0 6.0 194.5 7.0 136.0 -17.5 77.5 -41.5 55.5 -101.5 34.0 -161.5 35.0 -268.0 34.5 -350.5 45.5 -404.0 56.5 -458.0 85.0 -488.5 114.0 -519.0 166.5 -531.5 219.5 -544.0 303.0 -543.5" fill-rule="evenodd" stroke="none"/>
    </g>
    <g id="font_Eurostile_LT_Std_Bold_m0">
      <path d="M59.5 -537.5 L230.5 -537.5 230.5 -461.5 237.5 -461.5 Q248.5 -493.0 272.0 -511.0 295.0 -529.0 324.5 -536.5 354.5 -543.5 385.0 -543.5 423.5 -544.0 458.5 -536.5 494.0 -529.0 518.0 -506.5 542.5 -483.5 547.5 -438.0 L556.0 -438.0 Q561.0 -476.5 583.5 -499.5 606.0 -523.0 638.5 -533.0 671.0 -543.5 705.5 -543.5 798.0 -544.0 845.5 -502.5 892.5 -460.5 892.5 -367.5 L892.5 0.0 716.5 0.0 716.5 -311.5 Q715.5 -339.5 712.0 -361.5 708.5 -383.5 694.0 -396.0 679.5 -408.5 646.0 -408.5 612.0 -408.0 594.0 -394.5 576.5 -380.5 570.0 -357.5 563.5 -334.0 564.0 -305.0 L564.0 0.0 388.0 0.0 388.0 -325.5 Q387.5 -350.5 383.5 -369.0 379.5 -387.5 365.5 -398.0 351.5 -408.5 321.5 -408.5 285.5 -408.5 267.0 -396.0 248.0 -383.5 241.5 -360.5 235.0 -337.5 235.5 -305.0 L235.5 0.0 59.5 0.0 59.5 -537.5" fill-rule="evenodd" stroke="none"/>
    </g>
    <g id="font_Eurostile_LT_Std_Bold_p0">
      <path d="M320.5 -408.5 L320.5 -408.5 Q283.5 -409.0 264.5 -397.5 245.5 -385.5 238.5 -355.0 232.0 -324.5 232.5 -268.0 232.0 -223.0 237.0 -192.0 242.5 -161.0 261.5 -145.0 280.5 -129.0 320.5 -129.0 357.0 -128.0 378.0 -138.0 399.5 -148.0 409.0 -178.0 418.5 -208.0 418.0 -268.0 419.0 -320.0 413.5 -351.0 408.0 -382.0 387.5 -395.5 366.5 -409.0 320.5 -408.5 M56.5 232.5 L56.5 -537.5 232.5 -537.5 228.5 -452.5 236.5 -452.5 Q252.5 -506.0 292.5 -525.0 332.0 -544.5 390.5 -543.5 488.5 -544.5 541.0 -498.0 593.5 -451.5 594.0 -346.0 L594.0 -223.0 Q595.0 -101.5 547.5 -47.0 500.0 7.0 390.5 6.0 358.0 6.5 329.0 0.0 300.5 -7.0 278.0 -25.5 255.0 -44.5 240.5 -81.0 L232.5 -81.0 232.5 232.5 56.5 232.5" fill-rule="evenodd" stroke="none"/>
    </g>
    <g id="font_Eurostile_LT_Std_Bold_r0">
      <path d="M343.0 -303.0 L343.0 -328.5 Q343.5 -348.0 342.0 -366.0 340.0 -384.5 330.5 -396.0 320.5 -408.0 297.0 -408.5 258.0 -407.5 244.5 -382.0 230.5 -357.0 231.5 -322.5 L231.5 0.0 55.5 0.0 55.5 -537.5 226.5 -537.5 226.5 -458.5 233.5 -458.5 Q242.5 -481.5 256.0 -498.0 269.0 -514.0 285.5 -524.0 302.5 -534.0 323.5 -538.5 344.0 -543.5 368.5 -543.5 429.0 -542.5 457.5 -514.0 486.0 -485.0 494.5 -440.0 502.5 -395.0 501.5 -345.0 L501.5 -303.0 343.0 -303.0" fill-rule="evenodd" stroke="none"/>
    </g>
    <g id="font_Eurostile_LT_Std_Bold_b0">
      <path d="M330.0 -129.0 L330.0 -129.0 Q367.0 -128.5 386.0 -140.0 405.0 -152.0 412.0 -182.5 418.5 -213.0 418.0 -269.5 418.5 -314.5 413.5 -345.5 408.0 -376.5 389.0 -392.5 370.0 -408.5 330.0 -408.5 293.5 -409.5 272.5 -399.5 251.0 -389.5 241.5 -359.5 232.5 -329.5 232.5 -269.5 231.5 -217.5 237.0 -186.5 242.5 -155.5 263.0 -142.0 284.0 -128.5 330.0 -129.0 M56.5 -768.0 L232.5 -768.0 232.5 -460.5 240.5 -460.5 Q255.0 -495.0 278.0 -513.0 300.5 -531.0 329.0 -537.5 358.0 -544.0 390.5 -543.5 500.0 -544.5 547.5 -490.5 595.0 -436.0 594.0 -314.5 L594.0 -191.5 Q593.5 -86.0 541.0 -39.5 488.5 7.0 390.5 6.0 352.0 6.5 321.0 -2.0 290.0 -10.0 268.5 -31.5 247.0 -53.0 236.5 -93.0 L228.5 -93.0 232.5 0.0 56.5 0.0 56.5 -768.0" fill-rule="evenodd" stroke="none"/>
    </g>
    <g id="font_Eurostile_LT_Std_Bold_a0">
      <path d="M391.0 0.0 L397.0 -80.0 391.0 -80.0 Q383.5 -43.5 358.5 -25.0 334.0 -6.5 301.0 0.0 268.0 6.5 236.5 6.0 175.0 6.5 131.5 -7.0 88.0 -20.5 65.0 -56.5 42.0 -93.0 42.0 -160.5 42.0 -224.5 64.0 -261.5 86.5 -299.0 129.5 -314.5 173.0 -330.0 236.5 -329.5 262.5 -330.0 292.5 -327.5 322.5 -325.0 347.5 -312.0 372.5 -299.0 383.0 -269.0 L391.0 -269.0 391.0 -354.0 Q391.5 -379.5 387.5 -397.5 383.0 -416.0 366.0 -426.0 349.0 -436.0 311.0 -436.0 278.0 -437.0 259.0 -425.0 240.0 -413.0 239.5 -377.5 L63.5 -377.5 Q64.0 -439.5 84.5 -474.0 105.0 -508.5 140.0 -523.0 175.0 -538.0 219.5 -541.0 263.5 -544.0 311.0 -543.5 378.5 -544.0 427.0 -537.0 475.5 -530.0 506.5 -509.0 537.5 -488.0 552.5 -446.5 567.0 -404.5 567.0 -335.5 L567.0 0.0 391.0 0.0 M295.0 -222.0 L295.0 -222.0 Q261.5 -223.0 240.0 -212.5 218.5 -201.5 218.0 -166.0 218.5 -137.0 232.0 -124.5 245.5 -112.5 263.0 -109.5 281.0 -107.0 295.0 -107.5 349.0 -106.5 370.5 -119.0 392.0 -132.0 391.0 -173.0 390.5 -205.5 364.5 -214.5 338.5 -223.0 295.0 -222.0" fill-rule="evenodd" stroke="none"/>
    </g>
  </defs>
</svg>
